# xmcd CD database file
#
# Track frame offsets:
#	150
#	26556
#	51052
#	83300
#	93921
#	116616
#	150665
#	163015
#
# Disc length: 2507 seconds
#
# Revision: 0
# Processed by: cddbd v1.5.1PL0 Copyright (c) Steve Scherf et al.
# Submitted via: CDex 1.50beta9
#
DISCID=4f09c908
DTITLE=XL - Jeti
DYEAR=1999
DGENRE=Jazz
TTITLE0=In Dirt/Pohjalla
TTITLE1=Wish You Were Mine/Tyttö kuin toukokuu
TTITLE2=NM
TTITLE3=Precious/Kaunis
TTITLE4=A Player's Prayer/Ukkorukka
TTITLE5=Do You Have a Boyfriend/Neiti Neilikka
TTITLE6=Himalaya
TTITLE7=Jeti
EXTD=YEAR: 1999
EXTT0=
EXTT1=
EXTT2=
EXTT3=
EXTT4=
EXTT5=
EXTT6=
EXTT7=
PLAYORDER=
